<?xml version="1.0" standalone="no"?>
<!DOCTYPE svg PUBLIC "-//W3C//DTD SVG 20010904//EN"
 "http://www.w3.org/TR/2001/REC-SVG-20010904/DTD/svg10.dtd">
<svg version="1.0" xmlns="http://www.w3.org/2000/svg"
 width="180.000000pt" height="180.000000pt" viewBox="0 0 180.000000 180.000000"
 preserveAspectRatio="xMidYMid meet">
<metadata>
Created by potrace 1.11, written by Peter Selinger 2001-2013
</metadata>
<g transform="translate(0.000000,180.000000) scale(0.100000,-0.100000)"
fill="#000000" stroke="none">
<path d="M14 1613 c4 -21 23 -112 42 -203 20 -91 38 -176 40 -190 3 -14 25
-122 50 -240 25 -118 48 -226 50 -240 3 -14 11 -53 19 -88 8 -34 17 -77 20
-95 4 -17 11 -52 16 -77 12 -52 12 -52 40 -190 11 -58 23 -113 25 -122 5 -16
24 -18 208 -18 l203 0 93 295 c52 163 98 294 103 292 8 -2 40 -107 150 -502
l23 -80 196 -3 c181 -2 197 -1 202 15 4 14 204 1003 220 1088 2 11 11 54 19
95 9 41 18 86 21 100 3 14 7 36 10 50 10 42 26 133 26 142 0 4 -78 8 -174 8
l-173 0 -43 -262 c-48 -294 -44 -271 -64 -393 -8 -49 -17 -112 -20 -140 -14
-133 -19 -181 -22 -195 -1 -8 -3 -19 -4 -25 0 -5 -5 -2 -11 7 -8 14 -113 314
-202 578 l-22 65 -126 3 -126 3 -52 -158 c-29 -87 -56 -167 -61 -178 -5 -11
-30 -85 -56 -165 -42 -132 -63 -180 -65 -155 0 6 -2 19 -5 30 -2 11 -8 56 -14
100 -10 76 -13 97 -25 155 -3 14 -19 104 -36 200 -16 96 -34 198 -39 225 -5
28 -11 66 -14 85 -4 19 -8 46 -11 60 -3 14 -7 41 -11 60 -3 19 -7 42 -9 50 -2
8 -4 23 -4 33 -1 16 -17 17 -197 17 l-196 0 6 -37z"/>
</g>
</svg>
